<?xml version="1.0" encoding="UTF-8"?>
<svg xmlns="http://www.w3.org/2000/svg" xmlns:xlink="http://www.w3.org/1999/xlink" width="100px" height="100px" viewBox="0 0 100 100" version="1.1">
<g id="surface1">
<path style=" stroke:none;fill-rule:nonzero;fill:rgb(95.686275%,90.588235%,78.039216%);fill-opacity:1;" d="M 62.90625 52.554688 C 63.019531 54.300781 62.429688 56.089844 61.613281 57.8125 C 61.433594 58.199219 61.183594 58.808594 60.570312 58.242188 C 58.441406 56.226562 56.261719 54.253906 54.199219 52.171875 C 53.113281 51.082031 52.816406 49.5625 52.453125 48.136719 C 51.660156 44.941406 49.644531 43.511719 46.355469 43.851562 C 45.992188 43.898438 45.496094 43.851562 45.402344 44.285156 C 45.3125 44.714844 45.789062 44.785156 46.058594 44.964844 C 46.332031 45.144531 46.601562 45.304688 46.875 45.441406 C 48.601562 46.371094 48.714844 46.621094 48.441406 48.566406 C 48.238281 49.878906 46.445312 50.855469 45.265625 50.265625 C 44.519531 49.878906 43.746094 49.496094 43 49.109375 C 42.820312 49.019531 42.660156 48.90625 42.480469 49.0625 C 42.34375 49.199219 42.480469 49.355469 42.546875 49.492188 C 43.792969 51.761719 45.152344 53.847656 48.054688 54.1875 C 50.003906 54.414062 51.613281 55.367188 53.015625 56.746094 C 54.558594 58.242188 56.125 59.714844 57.730469 61.144531 C 58.296875 61.644531 58.09375 61.9375 57.640625 62.230469 C 50.09375 67.125 40.007812 62.503906 39.144531 53.367188 C 38.488281 46.339844 44.015625 40.738281 50.316406 40.398438 C 57.207031 40.035156 63.035156 45.546875 62.898438 52.550781 Z M 62.90625 52.554688 "/>
<path style=" stroke:none;fill-rule:nonzero;fill:rgb(95.686275%,90.588235%,78.039216%);fill-opacity:1;" d="M 35.933594 69.191406 C 36.433594 67.375 36.863281 65.652344 37.382812 63.953125 C 37.609375 63.183594 37.519531 62.640625 37.042969 61.960938 C 30.832031 53.121094 34.597656 40.539062 44.613281 36.550781 C 47.015625 35.597656 49.535156 35.078125 52.117188 35.328125 C 61.160156 36.167969 68.371094 43.125 68.007812 53.28125 C 67.894531 56.226562 66.941406 58.96875 65.375 61.488281 C 65.058594 62.007812 64.832031 62.121094 64.332031 61.648438 C 62.632812 60.011719 62.609375 60.035156 63.585938 57.929688 C 67.261719 50.042969 62.292969 40.410156 53.703125 38.777344 C 47.515625 37.597656 41.351562 40.65625 38.628906 46.28125 C 35.886719 51.96875 37.246094 58.542969 42.054688 62.738281 C 46.8125 66.882812 53.660156 67.222656 58.875 63.578125 C 59.464844 63.171875 59.847656 63.125 60.28125 63.667969 C 60.484375 63.917969 60.734375 64.097656 60.960938 64.324219 C 62.070312 65.367188 62.09375 65.390625 60.78125 66.25 C 55.066406 70.011719 49.128906 70.351562 43.011719 67.292969 C 42.441406 67 41.988281 67 41.421875 67.226562 C 39.8125 67.859375 38.183594 68.449219 36.550781 69.0625 C 36.371094 69.128906 36.1875 69.152344 35.9375 69.199219 Z M 35.933594 69.191406 "/>
<path style=" stroke:none;fill-rule:nonzero;fill:rgb(95.686275%,90.588235%,78.039216%);fill-opacity:1;" d="M 12.667969 83.535156 C 12.667969 83.601562 12.632812 83.667969 12.601562 83.734375 C 12.566406 83.800781 12.464844 83.800781 12.398438 83.800781 L 11 83.800781 C 10.933594 83.800781 10.867188 83.765625 10.800781 83.734375 C 10.734375 83.699219 10.699219 83.601562 10.699219 83.535156 L 10.699219 79.234375 L 6.734375 79.234375 L 6.734375 83.535156 C 6.734375 83.601562 6.699219 83.667969 6.632812 83.734375 C 6.566406 83.800781 6.5 83.800781 6.433594 83.800781 L 5.035156 83.800781 C 4.964844 83.800781 4.898438 83.765625 4.832031 83.734375 C 4.765625 83.667969 4.734375 83.601562 4.734375 83.535156 L 4.734375 73.667969 C 4.734375 73.601562 4.765625 73.535156 4.832031 73.464844 C 4.898438 73.398438 4.964844 73.398438 5.035156 73.398438 L 6.433594 73.398438 C 6.5 73.398438 6.566406 73.433594 6.632812 73.464844 C 6.699219 73.535156 6.734375 73.566406 6.734375 73.667969 L 6.734375 77.535156 L 10.699219 77.535156 L 10.699219 73.667969 C 10.699219 73.601562 10.734375 73.535156 10.800781 73.464844 C 10.867188 73.398438 10.933594 73.398438 11 73.398438 L 12.398438 73.398438 C 12.464844 73.398438 12.535156 73.433594 12.601562 73.464844 C 12.667969 73.5 12.667969 73.566406 12.667969 73.667969 Z M 12.667969 83.535156 "/>
<path style=" stroke:none;fill-rule:nonzero;fill:rgb(95.686275%,90.588235%,78.039216%);fill-opacity:1;" d="M 17.167969 77.367188 C 16.433594 77.367188 15.699219 77.5 14.933594 77.734375 C 14.734375 77.800781 14.632812 77.699219 14.632812 77.5 L 14.632812 76.667969 C 14.632812 76.566406 14.667969 76.5 14.699219 76.464844 C 14.734375 76.398438 14.832031 76.367188 14.933594 76.300781 C 15.234375 76.167969 15.566406 76.066406 16 75.964844 C 16.433594 75.867188 16.867188 75.832031 17.398438 75.832031 C 18 75.832031 18.5 75.933594 18.933594 76.132812 C 19.367188 76.332031 19.699219 76.632812 19.933594 77.035156 C 20.167969 77.433594 20.265625 77.933594 20.265625 78.5 L 20.265625 83.265625 C 20.265625 83.367188 20.265625 83.433594 20.234375 83.464844 C 20.199219 83.5 20.167969 83.535156 20.066406 83.566406 C 19.667969 83.667969 19.265625 83.765625 18.867188 83.832031 C 18.464844 83.898438 18 83.933594 17.433594 83.933594 C 16.667969 83.933594 16.035156 83.867188 15.566406 83.699219 C 15.101562 83.535156 14.734375 83.300781 14.5 82.933594 C 14.265625 82.566406 14.167969 82.132812 14.167969 81.566406 L 14.167969 81.5 C 14.167969 81.101562 14.234375 80.734375 14.332031 80.433594 C 14.433594 80.132812 14.632812 79.898438 14.898438 79.699219 C 15.167969 79.5 15.5 79.367188 15.898438 79.265625 C 16.300781 79.167969 16.832031 79.132812 17.433594 79.132812 L 18.433594 79.132812 L 18.433594 78.535156 C 18.433594 78.101562 18.332031 77.800781 18.132812 77.632812 C 17.898438 77.464844 17.601562 77.367188 17.167969 77.367188 Z M 18.398438 82.433594 L 18.398438 80.367188 L 17.398438 80.367188 C 16.964844 80.367188 16.667969 80.398438 16.464844 80.464844 C 16.265625 80.535156 16.132812 80.667969 16.066406 80.800781 C 16 80.964844 15.964844 81.167969 15.964844 81.464844 L 15.964844 81.535156 C 15.964844 81.800781 16 82 16.101562 82.132812 C 16.199219 82.265625 16.332031 82.367188 16.535156 82.433594 C 16.734375 82.5 17.035156 82.535156 17.433594 82.535156 C 17.800781 82.535156 18.132812 82.5 18.398438 82.433594 Z M 18.398438 82.433594 "/>
<path style=" stroke:none;fill-rule:nonzero;fill:rgb(95.686275%,90.588235%,78.039216%);fill-opacity:1;" d="M 28.265625 83.535156 C 28.265625 83.601562 28.234375 83.667969 28.167969 83.734375 C 28.101562 83.800781 28.035156 83.832031 27.964844 83.832031 L 26.667969 83.832031 C 26.601562 83.832031 26.535156 83.800781 26.464844 83.734375 C 26.398438 83.667969 26.398438 83.601562 26.398438 83.535156 L 26.398438 78.898438 C 26.398438 78.535156 26.367188 78.234375 26.265625 78.035156 C 26.167969 77.800781 26.035156 77.667969 25.832031 77.566406 C 25.632812 77.464844 25.367188 77.398438 25 77.398438 C 24.566406 77.398438 24.101562 77.464844 23.632812 77.566406 L 23.632812 83.535156 C 23.632812 83.601562 23.601562 83.699219 23.566406 83.734375 C 23.5 83.800781 23.433594 83.832031 23.367188 83.832031 L 22.066406 83.832031 C 22 83.832031 21.933594 83.800781 21.867188 83.734375 C 21.800781 83.667969 21.800781 83.601562 21.800781 83.535156 L 21.800781 76.535156 C 21.800781 76.398438 21.898438 76.300781 22.066406 76.265625 C 22.535156 76.132812 23.035156 76.035156 23.566406 75.964844 C 24.101562 75.898438 24.601562 75.867188 25.066406 75.867188 C 26.167969 75.867188 26.964844 76.101562 27.5 76.601562 C 28.035156 77.101562 28.265625 77.867188 28.265625 78.933594 Z M 28.265625 83.535156 "/>
<path style=" stroke:none;fill-rule:nonzero;fill:rgb(95.686275%,90.588235%,78.039216%);fill-opacity:1;" d="M 36.132812 83.199219 C 36.132812 83.300781 36.101562 83.398438 36.066406 83.433594 C 36.035156 83.464844 35.898438 83.535156 35.765625 83.566406 C 35.5 83.632812 35.199219 83.699219 34.867188 83.765625 C 34.535156 83.832031 34.199219 83.867188 33.867188 83.898438 C 33.535156 83.933594 33.234375 83.933594 32.933594 83.933594 C 32.199219 83.933594 31.566406 83.800781 31.066406 83.5 C 30.566406 83.234375 30.199219 82.832031 29.964844 82.300781 C 29.734375 81.765625 29.601562 81.132812 29.601562 80.398438 L 29.601562 79.332031 C 29.601562 78.601562 29.734375 77.964844 29.964844 77.433594 C 30.199219 76.898438 30.601562 76.5 31.066406 76.234375 C 31.566406 75.964844 32.167969 75.800781 32.933594 75.800781 C 33.332031 75.800781 33.800781 75.832031 34.265625 75.898438 L 34.265625 73.433594 C 34.265625 73.367188 34.300781 73.300781 34.332031 73.234375 C 34.398438 73.167969 34.464844 73.132812 34.535156 73.132812 L 35.832031 73.132812 C 35.898438 73.132812 35.964844 73.167969 36.035156 73.199219 C 36.101562 73.234375 36.101562 73.332031 36.101562 73.398438 L 36.101562 83.199219 Z M 34.300781 82.332031 L 34.300781 77.433594 C 34.066406 77.398438 33.832031 77.367188 33.632812 77.367188 C 33.433594 77.367188 33.199219 77.332031 32.964844 77.332031 C 32.398438 77.332031 32 77.5 31.800781 77.867188 C 31.601562 78.234375 31.464844 78.699219 31.464844 79.332031 L 31.464844 80.398438 C 31.464844 80.699219 31.5 80.964844 31.535156 81.199219 C 31.566406 81.433594 31.667969 81.667969 31.765625 81.832031 C 31.867188 82 32.035156 82.167969 32.234375 82.265625 C 32.433594 82.367188 32.667969 82.398438 32.964844 82.398438 C 33.535156 82.433594 34 82.398438 34.300781 82.332031 Z M 34.300781 82.332031 "/>
<path style=" stroke:none;fill-rule:nonzero;fill:rgb(95.686275%,90.588235%,78.039216%);fill-opacity:1;" d="M 44.367188 76.167969 C 44.367188 76.199219 44.367188 76.234375 44.332031 76.234375 L 42 84.398438 C 41.832031 84.933594 41.667969 85.367188 41.464844 85.699219 C 41.265625 86 41 86.234375 40.632812 86.398438 C 40.265625 86.566406 39.765625 86.632812 39.167969 86.632812 C 38.933594 86.632812 38.667969 86.601562 38.367188 86.566406 C 38.066406 86.535156 37.832031 86.5 37.667969 86.433594 C 37.464844 86.367188 37.367188 86.300781 37.367188 86.199219 L 37.367188 85.300781 C 37.367188 85.234375 37.398438 85.167969 37.433594 85.132812 C 37.464844 85.101562 37.566406 85.066406 37.632812 85.066406 L 37.667969 85.066406 C 37.800781 85.066406 38.066406 85.101562 38.433594 85.101562 C 38.832031 85.132812 39.101562 85.132812 39.234375 85.132812 C 39.433594 85.132812 39.601562 85.101562 39.734375 85.066406 C 39.867188 85 40 84.933594 40.066406 84.800781 C 40.167969 84.667969 40.234375 84.5 40.300781 84.234375 L 40.398438 83.800781 L 40.199219 83.800781 C 40.035156 83.800781 39.898438 83.765625 39.734375 83.734375 C 39.601562 83.667969 39.433594 83.566406 39.300781 83.398438 C 39.167969 83.234375 39.066406 82.964844 38.964844 82.632812 L 37.132812 76.234375 C 37.132812 76.199219 37.132812 76.167969 37.132812 76.132812 C 37.132812 75.964844 37.234375 75.898438 37.398438 75.898438 L 38.800781 75.898438 C 38.867188 75.898438 38.933594 75.933594 38.964844 75.964844 C 39.035156 76.035156 39.035156 76.066406 39.066406 76.132812 L 40.464844 81.832031 C 40.5 82.035156 40.566406 82.132812 40.667969 82.132812 L 40.765625 82.132812 L 42.265625 76.132812 C 42.300781 75.964844 42.398438 75.898438 42.535156 75.898438 L 43.964844 75.898438 C 44.035156 75.898438 44.101562 75.933594 44.132812 75.964844 C 44.167969 76 44.367188 76.101562 44.367188 76.167969 Z M 44.367188 76.167969 "/>
<path style=" stroke:none;fill-rule:nonzero;fill:rgb(95.686275%,90.588235%,78.039216%);fill-opacity:1;" d="M 49.199219 83.933594 C 48.734375 83.933594 48.300781 83.867188 47.832031 83.734375 C 47.398438 83.601562 46.964844 83.367188 46.601562 83.066406 C 46.234375 82.765625 45.898438 82.300781 45.667969 81.734375 C 45.433594 81.167969 45.332031 80.464844 45.332031 79.667969 L 45.332031 77.601562 C 45.332031 76.5 45.535156 75.601562 45.898438 74.964844 C 46.265625 74.332031 46.765625 73.898438 47.332031 73.667969 C 47.898438 73.433594 48.535156 73.300781 49.199219 73.300781 C 49.566406 73.300781 49.898438 73.332031 50.199219 73.398438 C 50.535156 73.464844 50.800781 73.566406 51.035156 73.632812 C 51.265625 73.734375 51.433594 73.800781 51.464844 73.832031 C 51.667969 73.933594 51.765625 74.066406 51.765625 74.199219 L 51.765625 75.167969 C 51.765625 75.398438 51.667969 75.464844 51.433594 75.367188 C 51.265625 75.300781 51.066406 75.234375 50.800781 75.167969 C 50.535156 75.101562 50.265625 75.035156 50.035156 75 C 49.765625 74.964844 49.535156 74.933594 49.300781 74.933594 C 48.832031 74.933594 48.464844 75 48.167969 75.167969 C 47.867188 75.332031 47.632812 75.601562 47.5 76 C 47.367188 76.367188 47.265625 76.898438 47.265625 77.566406 L 47.265625 79.632812 C 47.265625 80.265625 47.332031 80.765625 47.5 81.167969 C 47.632812 81.566406 47.867188 81.832031 48.167969 82 C 48.464844 82.167969 48.832031 82.265625 49.300781 82.265625 C 49.667969 82.265625 50.035156 82.234375 50.433594 82.132812 C 50.832031 82.035156 51.167969 81.933594 51.464844 81.832031 C 51.699219 81.734375 51.800781 81.832031 51.800781 82.035156 L 51.800781 83 C 51.800781 83.132812 51.699219 83.265625 51.5 83.367188 C 51.300781 83.464844 51 83.601562 50.566406 83.734375 C 50.167969 83.867188 49.699219 83.933594 49.199219 83.933594 Z M 49.199219 83.933594 "/>
<path style=" stroke:none;fill-rule:nonzero;fill:rgb(95.686275%,90.588235%,78.039216%);fill-opacity:1;" d="M 59.632812 80.433594 C 59.632812 81.101562 59.5 81.699219 59.234375 82.234375 C 58.964844 82.765625 58.601562 83.167969 58.101562 83.464844 C 57.601562 83.765625 57 83.898438 56.265625 83.898438 C 55.566406 83.898438 54.964844 83.765625 54.433594 83.464844 C 53.898438 83.167969 53.535156 82.765625 53.300781 82.234375 C 53.066406 81.699219 52.933594 81.101562 52.933594 80.433594 L 52.933594 79.332031 C 52.933594 78.667969 53.066406 78.066406 53.300781 77.535156 C 53.535156 77 53.933594 76.601562 54.433594 76.300781 C 54.933594 76 55.535156 75.867188 56.265625 75.867188 C 56.964844 75.867188 57.601562 76 58.101562 76.300781 C 58.601562 76.601562 58.964844 77 59.234375 77.535156 C 59.5 78.066406 59.632812 78.667969 59.632812 79.332031 Z M 57.800781 80.433594 L 57.800781 79.332031 C 57.800781 78.734375 57.667969 78.300781 57.398438 77.933594 C 57.132812 77.566406 56.765625 77.433594 56.265625 77.433594 C 55.800781 77.433594 55.398438 77.601562 55.167969 77.933594 C 54.933594 78.265625 54.765625 78.734375 54.765625 79.332031 L 54.765625 80.464844 C 54.765625 81.066406 54.898438 81.5 55.167969 81.867188 C 55.433594 82.234375 55.800781 82.367188 56.265625 82.367188 C 56.734375 82.367188 57.132812 82.199219 57.367188 81.867188 C 57.601562 81.535156 57.800781 81.035156 57.800781 80.433594 Z M 57.800781 80.433594 "/>
<path style=" stroke:none;fill-rule:nonzero;fill:rgb(95.686275%,90.588235%,78.039216%);fill-opacity:1;" d="M 67.464844 83.535156 C 67.464844 83.601562 67.433594 83.667969 67.367188 83.734375 C 67.300781 83.800781 67.234375 83.832031 67.167969 83.832031 L 65.867188 83.832031 C 65.800781 83.832031 65.734375 83.800781 65.667969 83.734375 C 65.601562 83.667969 65.601562 83.601562 65.601562 83.535156 L 65.601562 78.898438 C 65.601562 78.535156 65.566406 78.234375 65.464844 78.035156 C 65.367188 77.832031 65.234375 77.667969 65.035156 77.566406 C 64.832031 77.464844 64.566406 77.398438 64.199219 77.398438 C 63.765625 77.398438 63.300781 77.464844 62.832031 77.566406 L 62.832031 83.535156 C 62.832031 83.601562 62.800781 83.699219 62.765625 83.734375 C 62.734375 83.765625 62.632812 83.832031 62.566406 83.832031 L 61.265625 83.832031 C 61.199219 83.832031 61.132812 83.800781 61.066406 83.734375 C 61 83.667969 61 83.601562 61 83.535156 L 61 76.535156 C 61 76.398438 61.101562 76.300781 61.265625 76.265625 C 61.734375 76.132812 62.234375 76.035156 62.765625 75.964844 C 63.300781 75.898438 63.800781 75.867188 64.265625 75.867188 C 65.367188 75.867188 66.167969 76.101562 66.699219 76.601562 C 67.234375 77.101562 67.464844 77.867188 67.464844 78.933594 Z M 67.464844 83.535156 "/>
<path style=" stroke:none;fill-rule:nonzero;fill:rgb(95.686275%,90.588235%,78.039216%);fill-opacity:1;" d="M 75.5 83.535156 C 75.5 83.601562 75.464844 83.667969 75.398438 83.734375 C 75.332031 83.800781 75.265625 83.832031 75.199219 83.832031 L 73.898438 83.832031 C 73.832031 83.832031 73.765625 83.800781 73.699219 83.734375 C 73.632812 83.667969 73.632812 83.601562 73.632812 83.535156 L 73.632812 78.898438 C 73.632812 78.535156 73.601562 78.234375 73.5 78.035156 C 73.398438 77.832031 73.265625 77.667969 73.066406 77.566406 C 72.867188 77.464844 72.601562 77.398438 72.234375 77.398438 C 71.800781 77.398438 71.332031 77.464844 70.867188 77.566406 L 70.867188 83.535156 C 70.867188 83.601562 70.832031 83.699219 70.800781 83.734375 C 70.765625 83.765625 70.667969 83.832031 70.601562 83.832031 L 69.332031 83.832031 C 69.265625 83.832031 69.199219 83.800781 69.132812 83.734375 C 69.066406 83.667969 69.066406 83.601562 69.066406 83.535156 L 69.066406 76.535156 C 69.066406 76.398438 69.167969 76.300781 69.332031 76.265625 C 69.800781 76.132812 70.300781 76.035156 70.832031 75.964844 C 71.367188 75.898438 71.867188 75.867188 72.332031 75.867188 C 73.433594 75.867188 74.234375 76.101562 74.765625 76.601562 C 75.300781 77.101562 75.535156 77.867188 75.535156 78.933594 L 75.535156 83.535156 Z M 75.5 83.535156 "/>
<path style=" stroke:none;fill-rule:nonzero;fill:rgb(95.686275%,90.588235%,78.039216%);fill-opacity:1;" d="M 80.433594 83.933594 C 79.832031 83.933594 79.265625 83.832031 78.734375 83.601562 C 78.199219 83.398438 77.734375 83 77.398438 82.5 C 77.066406 82 76.867188 81.265625 76.867188 80.433594 L 76.867188 79.398438 C 76.867188 78.699219 77 78.066406 77.265625 77.5 C 77.535156 76.933594 77.898438 76.535156 78.433594 76.265625 C 78.964844 76 79.535156 75.832031 80.234375 75.832031 C 80.933594 75.832031 81.535156 76 82.035156 76.300781 C 82.535156 76.601562 82.933594 77.035156 83.167969 77.566406 C 83.398438 78.101562 83.566406 78.734375 83.566406 79.433594 L 83.566406 80.199219 C 83.566406 80.433594 83.464844 80.566406 83.300781 80.566406 L 78.734375 80.566406 L 78.734375 80.601562 C 78.734375 81.132812 78.867188 81.566406 79.132812 81.898438 C 79.398438 82.234375 79.898438 82.398438 80.601562 82.398438 C 81 82.398438 81.398438 82.367188 81.867188 82.265625 C 82.332031 82.167969 82.699219 82.101562 83 82 C 83.199219 81.933594 83.300781 82 83.300781 82.234375 L 83.300781 83.066406 C 83.300781 83.167969 83.265625 83.234375 83.234375 83.265625 C 83.199219 83.300781 83.101562 83.367188 83 83.433594 C 82.699219 83.601562 82.332031 83.699219 81.867188 83.832031 C 81.398438 83.867188 80.898438 83.933594 80.433594 83.933594 Z M 81.699219 79.199219 L 81.699219 79.132812 C 81.699219 78.566406 81.566406 78.132812 81.300781 77.832031 C 81.035156 77.535156 80.667969 77.398438 80.234375 77.398438 C 79.933594 77.398438 79.667969 77.464844 79.464844 77.601562 C 79.265625 77.734375 79.066406 77.898438 78.933594 78.167969 C 78.800781 78.433594 78.734375 78.734375 78.734375 79.132812 L 78.734375 79.199219 Z M 81.699219 79.199219 "/>
<path style=" stroke:none;fill-rule:nonzero;fill:rgb(95.686275%,90.588235%,78.039216%);fill-opacity:1;" d="M 87.867188 82.367188 C 88.398438 82.367188 89 82.265625 89.667969 82.035156 C 89.867188 81.964844 89.964844 82.066406 89.964844 82.265625 L 89.964844 83.167969 C 89.964844 83.265625 89.933594 83.332031 89.898438 83.367188 C 89.867188 83.398438 89.765625 83.464844 89.667969 83.535156 C 89.199219 83.800781 88.566406 83.933594 87.867188 83.933594 C 87.234375 83.933594 86.699219 83.800781 86.199219 83.566406 C 85.699219 83.332031 85.332031 82.964844 85.066406 82.464844 C 84.800781 81.964844 84.667969 81.300781 84.667969 80.535156 L 84.667969 79.234375 C 84.667969 78.464844 84.800781 77.832031 85.066406 77.332031 C 85.332031 76.832031 85.699219 76.433594 86.199219 76.199219 C 86.667969 75.964844 87.234375 75.832031 87.867188 75.832031 C 88.601562 75.832031 89.199219 75.964844 89.667969 76.234375 C 89.765625 76.300781 89.832031 76.332031 89.898438 76.398438 C 89.964844 76.464844 89.964844 76.535156 89.964844 76.601562 L 89.964844 77.5 C 89.964844 77.699219 89.867188 77.765625 89.667969 77.734375 C 89.367188 77.632812 89.066406 77.566406 88.832031 77.5 C 88.601562 77.433594 88.300781 77.398438 87.933594 77.398438 C 87 77.398438 86.535156 78 86.535156 79.234375 L 86.535156 80.535156 C 86.535156 81.199219 86.667969 81.667969 86.933594 81.933594 C 87.199219 82.199219 87.5 82.367188 87.867188 82.367188 Z M 87.867188 82.367188 "/>
<path style=" stroke:none;fill-rule:nonzero;fill:rgb(95.686275%,90.588235%,78.039216%);fill-opacity:1;" d="M 95.867188 83.601562 C 95.867188 83.734375 95.765625 83.832031 95.601562 83.867188 C 95.199219 83.933594 94.832031 83.964844 94.5 83.964844 C 93.933594 83.964844 93.5 83.898438 93.199219 83.800781 C 92.898438 83.699219 92.667969 83.464844 92.5 83.167969 C 92.332031 82.867188 92.265625 82.367188 92.265625 81.765625 L 92.265625 77.332031 L 91.101562 77.132812 C 90.898438 77.101562 90.832031 77 90.832031 76.867188 L 90.832031 76.234375 C 90.832031 76.167969 90.867188 76.101562 90.898438 76.035156 C 90.933594 75.964844 91.035156 75.964844 91.101562 75.964844 L 92.265625 75.964844 L 92.265625 74.832031 C 92.265625 74.667969 92.367188 74.601562 92.535156 74.566406 L 93.832031 74.332031 L 93.898438 74.332031 C 94.035156 74.332031 94.132812 74.398438 94.132812 74.535156 L 94.132812 75.964844 L 95.535156 75.964844 C 95.632812 75.964844 95.699219 76 95.734375 76.035156 C 95.800781 76.101562 95.800781 76.167969 95.800781 76.234375 L 95.800781 77.066406 C 95.800781 77.132812 95.765625 77.199219 95.734375 77.265625 C 95.699219 77.332031 95.601562 77.332031 95.535156 77.332031 L 94.132812 77.332031 L 94.132812 81.734375 C 94.132812 82.066406 94.167969 82.300781 94.234375 82.367188 C 94.300781 82.433594 94.433594 82.5 94.699219 82.5 L 95.601562 82.5 C 95.800781 82.5 95.898438 82.566406 95.898438 82.699219 L 95.898438 83.601562 Z M 95.867188 83.601562 "/>
</g>
</svg>
